HIERARCHY
ROOT mixamorig:Hips
{
	OFFSET 0.000000 1.042749 0.000000
	CHANNELS 6 Xposition Yposition Zposition Xrotation Yrotation Zrotation
	JOINT mixamorig:Spine
	{
		OFFSET 0.000000 0.101815 0.001315
		CHANNELS 6 Xposition Yposition Zposition Xrotation Yrotation Zrotation
		JOINT mixamorig:Spine1
		{
			OFFSET 0.000000 0.098940 -0.014707
			CHANNELS 3 Xrotation Yrotation Zrotation
			JOINT mixamorig:Spine2
			{
				OFFSET 0.000000 0.092208 -0.013706
				CHANNELS 3 Xrotation Yrotation Zrotation
				JOINT mixamorig:Neck
				{
					OFFSET 0.000000 0.167404 -0.020490
					CHANNELS 6 Xposition Yposition Zposition Xrotation Yrotation Zrotation
					JOINT mixamorig:Head
					{
						OFFSET 0.000000 0.096179 0.016850
						CHANNELS 6 Xposition Yposition Zposition Xrotation Yrotation Zrotation
						JOINT mixamorig:HeadTop_End
						{
							OFFSET 0.000000 0.220374 0.075011
							CHANNELS 6 Xposition Yposition Zposition Xrotation Yrotation Zrotation
							End Site
							{
								OFFSET 0.000000 0.231066 -0.028282
							}
						}
					}
				}
				JOINT mixamorig:RightShoulder
				{
					OFFSET -0.045700 0.110149 -0.021608
					CHANNELS 6 Xposition Yposition Zposition Xrotation Yrotation Zrotation
					JOINT mixamorig:RightArm
					{
						OFFSET -0.105929 -0.005248 -0.022321
						CHANNELS 3 Xrotation Yrotation Zrotation
						JOINT mixamorig:RightForeArm
						{
							OFFSET -0.278415 0.000000 -0.000000
							CHANNELS 3 Xrotation Yrotation Zrotation
							JOINT mixamorig:RightHand
							{
								OFFSET -0.283288 0.000000 -0.000000
								CHANNELS 3 Xrotation Yrotation Zrotation
								JOINT mixamorig:RightHandThumb1
								{
									OFFSET -0.024648 -0.015740 0.026819
									CHANNELS 6 Xposition Yposition Zposition Xrotation Yrotation Zrotation
									JOINT mixamorig:RightHandThumb2
									{
										OFFSET -0.032448 -0.018734 0.018734
										CHANNELS 3 Xrotation Yrotation Zrotation
										JOINT mixamorig:RightHandThumb3
										{
											OFFSET -0.026463 -0.015278 0.015278
											CHANNELS 6 Xposition Yposition Zposition Xrotation Yrotation Zrotation
											JOINT mixamorig:RightHandThumb4
											{
												OFFSET -0.019946 -0.011516 0.011516
												CHANNELS 6 Xposition Yposition Zposition Xrotation Yrotation Zrotation
												End Site
												{
													OFFSET -0.018602 -0.011427 0.013655
												}
											}
										}
									}
								}
								JOINT mixamorig:RightHandIndex1
								{
									OFFSET -0.091083 -0.005179 0.022598
									CHANNELS 6 Xposition Yposition Zposition Xrotation Yrotation Zrotation
									JOINT mixamorig:RightHandIndex2
									{
										OFFSET -0.037000 0.000000 0.000000
										CHANNELS 3 Xrotation Yrotation Zrotation
										JOINT mixamorig:RightHandIndex3
										{
											OFFSET -0.028500 0.000000 0.000000
											CHANNELS 3 Xrotation Yrotation Zrotation
											JOINT mixamorig:RightHandIndex4
											{
												OFFSET -0.027722 0.000000 0.000000
												CHANNELS 3 Xrotation Yrotation Zrotation
												End Site
												{
													OFFSET -0.027722 0.000000 -0.000005
												}
											}
										}
									}
								}
								JOINT mixamorig:RightHandMiddle1
								{
									OFFSET -0.095325 0.000000 -0.000000
									CHANNELS 6 Xposition Yposition Zposition Xrotation Yrotation Zrotation
									JOINT mixamorig:RightHandMiddle2
									{
										OFFSET -0.037000 0.000000 0.000000
										CHANNELS 3 Xrotation Yrotation Zrotation
										JOINT mixamorig:RightHandMiddle3
										{
											OFFSET -0.029500 0.000000 0.000000
											CHANNELS 3 Xrotation Yrotation Zrotation
											JOINT mixamorig:RightHandMiddle4
											{
												OFFSET -0.029466 0.000000 0.000000
												CHANNELS 3 Xrotation Yrotation Zrotation
												End Site
												{
													OFFSET -0.029466 0.000000 -0.000010
												}
											}
										}
									}
								}
								JOINT mixamorig:RightHandRing1
								{
									OFFSET -0.091036 -0.000431 -0.018651
									CHANNELS 6 Xposition Yposition Zposition Xrotation Yrotation Zrotation
									JOINT mixamorig:RightHandRing2
									{
										OFFSET -0.033793 0.000000 0.000000
										CHANNELS 3 Xrotation Yrotation Zrotation
										JOINT mixamorig:RightHandRing3
										{
											OFFSET -0.028897 0.000000 0.000000
											CHANNELS 3 Xrotation Yrotation Zrotation
											JOINT mixamorig:RightHandRing4
											{
												OFFSET -0.026388 0.000000 0.000000
												CHANNELS 3 Xrotation Yrotation Zrotation
												End Site
												{
													OFFSET -0.026388 0.000000 0.000042
												}
											}
										}
									}
								}
								JOINT mixamorig:RightHandPinky1
								{
									OFFSET -0.080767 -0.004867 -0.038063
									CHANNELS 6 Xposition Yposition Zposition Xrotation Yrotation Zrotation
									JOINT mixamorig:RightHandPinky2
									{
										OFFSET -0.036000 0.000000 0.000000
										CHANNELS 3 Xrotation Yrotation Zrotation
										JOINT mixamorig:RightHandPinky3
										{
											OFFSET -0.021000 0.000000 0.000000
											CHANNELS 3 Xrotation Yrotation Zrotation
											JOINT mixamorig:RightHandPinky4
											{
												OFFSET -0.021158 0.000000 0.000000
												CHANNELS 3 Xrotation Yrotation Zrotation
												End Site
												{
													OFFSET -0.021158 0.000000 0.000002
												}
											}
										}
									}
								}
							}
						}
					}
				}
				JOINT mixamorig:LeftShoulder
				{
					OFFSET 0.045704 0.110147 -0.021608
					CHANNELS 6 Xposition Yposition Zposition Xrotation Yrotation Zrotation
					JOINT mixamorig:LeftArm
					{
						OFFSET 0.105924 -0.005246 -0.022321
						CHANNELS 3 Xrotation Yrotation Zrotation
						JOINT mixamorig:LeftForeArm
						{
							OFFSET 0.278415 0.000000 0.000000
							CHANNELS 3 Xrotation Yrotation Zrotation
							JOINT mixamorig:LeftHand
							{
								OFFSET 0.283288 0.000000 -0.000000
								CHANNELS 3 Xrotation Yrotation Zrotation
								JOINT mixamorig:LeftHandThumb1
								{
									OFFSET 0.024661 -0.015762 0.026817
									CHANNELS 6 Xposition Yposition Zposition Xrotation Yrotation Zrotation
									JOINT mixamorig:LeftHandThumb2
									{
										OFFSET 0.032433 -0.018725 0.018725
										CHANNELS 3 Xrotation Yrotation Zrotation
										JOINT mixamorig:LeftHandThumb3
										{
											OFFSET 0.026479 -0.015288 0.015288
											CHANNELS 6 Xposition Yposition Zposition Xrotation Yrotation Zrotation
											JOINT mixamorig:LeftHandThumb4
											{
												OFFSET 0.019989 -0.011541 0.011541
												CHANNELS 6 Xposition Yposition Zposition Xrotation Yrotation Zrotation
												End Site
												{
													OFFSET 0.018840 -0.011492 0.013377
												}
											}
										}
									}
								}
								JOINT mixamorig:LeftHandIndex1
								{
									OFFSET 0.091093 -0.005180 0.022599
									CHANNELS 6 Xposition Yposition Zposition Xrotation Yrotation Zrotation
									JOINT mixamorig:LeftHandIndex2
									{
										OFFSET 0.037000 0.000000 0.000000
										CHANNELS 3 Xrotation Yrotation Zrotation
										JOINT mixamorig:LeftHandIndex3
										{
											OFFSET 0.028500 0.000000 0.000000
											CHANNELS 3 Xrotation Yrotation Zrotation
											JOINT mixamorig:LeftHandIndex4
											{
												OFFSET 0.027749 0.000000 0.000000
												CHANNELS 3 Xrotation Yrotation Zrotation
												End Site
												{
													OFFSET 0.027749 0.000000 -0.000001
												}
											}
										}
									}
								}
								JOINT mixamorig:LeftHandMiddle1
								{
									OFFSET 0.095334 0.000000 0.000000
									CHANNELS 6 Xposition Yposition Zposition Xrotation Yrotation Zrotation
									JOINT mixamorig:LeftHandMiddle2
									{
										OFFSET 0.037000 0.000000 0.000000
										CHANNELS 3 Xrotation Yrotation Zrotation
										JOINT mixamorig:LeftHandMiddle3
										{
											OFFSET 0.029500 0.000000 0.000000
											CHANNELS 3 Xrotation Yrotation Zrotation
											JOINT mixamorig:LeftHandMiddle4
											{
												OFFSET 0.029529 0.000000 0.000000
												CHANNELS 3 Xrotation Yrotation Zrotation
												End Site
												{
													OFFSET 0.029529 0.000000 0.000002
												}
											}
										}
									}
								}
								JOINT mixamorig:LeftHandRing1
								{
									OFFSET 0.091045 -0.000430 -0.018651
									CHANNELS 6 Xposition Yposition Zposition Xrotation Yrotation Zrotation
									JOINT mixamorig:LeftHandRing2
									{
										OFFSET 0.031500 0.000000 0.000000
										CHANNELS 3 Xrotation Yrotation Zrotation
										JOINT mixamorig:LeftHandRing3
										{
											OFFSET 0.029500 0.000000 0.000000
											CHANNELS 3 Xrotation Yrotation Zrotation
											JOINT mixamorig:LeftHandRing4
											{
												OFFSET 0.026443 0.000000 0.000000
												CHANNELS 3 Xrotation Yrotation Zrotation
												End Site
												{
													OFFSET 0.026443 0.000000 0.000001
												}
											}
										}
									}
								}
								JOINT mixamorig:LeftHandPinky1
								{
									OFFSET 0.080778 -0.004869 -0.038063
									CHANNELS 6 Xposition Yposition Zposition Xrotation Yrotation Zrotation
									JOINT mixamorig:LeftHandPinky2
									{
										OFFSET 0.036000 0.000000 0.000000
										CHANNELS 3 Xrotation Yrotation Zrotation
										JOINT mixamorig:LeftHandPinky3
										{
											OFFSET 0.021000 0.000000 0.000000
											CHANNELS 3 Xrotation Yrotation Zrotation
											JOINT mixamorig:LeftHandPinky4
											{
												OFFSET 0.021255 0.000000 0.000000
												CHANNELS 3 Xrotation Yrotation Zrotation
												End Site
												{
													OFFSET 0.021255 0.000000 -0.000013
												}
											}
										}
									}
								}
							}
						}
					}
				}
			}
		}
	}
	JOINT mixamorig:RightUpLeg
	{
		OFFSET -0.082078 -0.067517 -0.015995
		CHANNELS 6 Xposition Yposition Zposition Xrotation Yrotation Zrotation
		JOINT mixamorig:RightLeg
		{
			OFFSET 0.000000 -0.443702 0.003459
			CHANNELS 3 Xrotation Yrotation Zrotation
			JOINT mixamorig:RightFoot
			{
				OFFSET 0.000000 -0.444237 -0.030435
				CHANNELS 3 Xrotation Yrotation Zrotation
				JOINT mixamorig:RightToeBase
				{
					OFFSET 0.000000 -0.087287 0.107106
					CHANNELS 3 Xrotation Yrotation Zrotation
					JOINT mixamorig:RightToe_End
					{
						OFFSET 0.000000 -0.000007 0.092781
						CHANNELS 3 Xrotation Yrotation Zrotation
						End Site
						{
							OFFSET 0.000000 -0.000007 0.092781
						}
					}
				}
			}
		}
	}
	JOINT mixamorig:LeftUpLeg
	{
		OFFSET 0.082078 -0.067517 -0.015995
		CHANNELS 6 Xposition Yposition Zposition Xrotation Yrotation Zrotation
		JOINT mixamorig:LeftLeg
		{
			OFFSET 0.000000 -0.443700 0.003469
			CHANNELS 3 Xrotation Yrotation Zrotation
			JOINT mixamorig:LeftFoot
			{
				OFFSET 0.000000 -0.444236 -0.030444
				CHANNELS 3 Xrotation Yrotation Zrotation
				JOINT mixamorig:LeftToeBase
				{
					OFFSET 0.000000 -0.087287 0.107106
					CHANNELS 3 Xrotation Yrotation Zrotation
					JOINT mixamorig:LeftToe_End
					{
						OFFSET 0.000000 -0.000007 0.092781
						CHANNELS 3 Xrotation Yrotation Zrotation
						End Site
						{
							OFFSET 0.000000 -0.000007 0.092781
						}
					}
				}
			}
		}
	}
}
MOTION
Frames: 4
Frame Time: 0.016667
-0.018230 0.982185 0.029073 2.616013 7.636910 4.014255 0.000000 0.101816 0.001315 2.997610 0.133364 -0.295684 5.993901 0.319154 -0.047777 5.993901 0.319155 -0.047777 0.000000 0.167404 -0.020490 10.236181 -7.467780 -3.893533 -0.000000 0.096178 0.016850 27.464659 -1.171890 -7.307852 -0.000000 0.220374 0.075011 0.000003 -0.000000 0.000001 -0.045700 0.110149 -0.021608 0.239554 5.710574 4.937005 -24.054658 2.506250 57.111668 -2.055559 134.926248 1.456141 -1.702935 -0.011769 -10.863360 -0.024648 -0.015740 0.026819 -28.184238 -8.799968 2.853198 1.069900 -1.936854 -0.044733 -0.026463 -0.015278 0.015278 -0.000001 0.000008 -0.000002 -0.019946 -0.011516 0.011516 0.000002 0.000001 -0.000000 -0.091083 -0.005179 0.022598 -5.200620 -5.543894 18.890345 0.317921 -1.583534 26.884072 0.000003 0.000004 -0.000006 0.000006 0.000003 -0.000000 -0.095325 0.000000 0.000000 0.162163 -3.788572 24.349419 -0.230915 0.941026 18.019554 0.000000 0.000001 0.000002 -0.000002 -0.000001 0.000001 -0.091036 -0.000431 -0.018651 -0.835085 -5.562466 29.006082 1.168924 0.165129 14.661559 -0.000003 0.000007 0.000009 0.000004 0.000002 0.000001 -0.080767 -0.004867 -0.038063 2.102135 -5.466625 32.537758 -0.289051 1.218754 11.263577 0.000000 0.000002 0.000015 0.000003 0.000004 0.000001 0.045704 0.110147 -0.021608 -0.755203 -6.377594 -9.332974 -5.854473 -7.912780 -66.480410 -1.190983 -118.403201 -1.048027 29.768027 -14.225341 21.823761 0.024661 -0.015762 0.026817 -24.092884 0.442615 2.504957 7.776496 13.790374 -3.878339 0.026479 -0.015287 0.015288 -0.000006 0.000009 -0.000013 0.019989 -0.011541 0.011541 0.000001 0.000003 -0.000002 0.091093 -0.005180 0.022599 -4.901277 -0.256401 -12.685901 0.236643 1.562025 -15.996143 -0.000001 -0.000000 0.000000 -0.000002 0.000004 0.000000 0.095334 0.000000 -0.000000 -0.690098 2.146926 -17.168611 -0.184994 -0.491564 -15.428921 -0.000002 -0.000000 0.000002 -0.000001 0.000001 0.000002 0.091045 -0.000430 -0.018651 0.911807 5.416845 -24.402774 -0.474076 -0.941587 -22.501536 0.000000 -0.000001 -0.000001 -0.000001 -0.000002 -0.000002 0.080778 -0.004869 -0.038063 4.515925 8.206979 -25.141510 -0.663671 -3.235424 -19.186676 -0.000010 -0.000016 -0.000014 0.000004 -0.000001 -0.000003 -0.082078 -0.067517 -0.015995 -26.117137 0.557211 -10.437835 39.381498 0.344185 1.552590 -15.222548 -8.193118 3.388744 -1.010654 -3.990294 2.420466 0.000000 0.000000 0.000000 0.082078 -0.067517 -0.015995 -23.857337 5.766726 5.054051 43.104456 -0.931915 -1.633571 -7.038117 4.696318 -3.230873 -12.238669 -2.900791 -3.016403 0.000000 0.000002 0.000000 
-0.016794 0.983257 0.033201 2.235131 7.511367 4.168252 0.000000 0.101815 0.001315 2.838204 0.178966 -0.241912 5.674426 0.406377 0.071912 5.674427 0.406379 0.071915 -0.000000 0.167404 -0.020490 10.756320 -4.995319 -4.139970 -0.000000 0.096179 0.016850 26.762245 1.110111 -6.943827 0.000000 0.220374 0.075011 0.000005 0.000000 -0.000001 -0.045700 0.110149 -0.021608 0.109270 5.851510 5.567491 -17.478058 -0.323449 56.435568 -2.042384 135.236038 1.438981 1.530469 1.069064 -11.539962 -0.024648 -0.015740 0.026819 -28.028108 -8.079701 3.864785 1.118921 -2.183975 -0.151888 -0.026463 -0.015278 0.015278 -0.000005 0.000010 -0.000004 -0.019946 -0.011516 0.011516 -0.000004 0.000002 0.000001 -0.091083 -0.005179 0.022598 -5.664475 -4.990985 19.027369 0.288024 -1.525217 25.527450 -0.000004 0.000005 -0.000003 -0.000002 0.000001 0.000002 -0.095325 0.000000 -0.000000 -0.216613 -3.431883 23.892610 -0.217293 0.899660 17.360181 0.000002 0.000001 0.000000 -0.000000 0.000001 -0.000001 -0.091036 -0.000431 -0.018651 -0.949446 -5.301202 28.203750 1.080764 0.131464 14.546317 -0.000002 0.000006 0.000011 0.000001 0.000002 0.000001 -0.080767 -0.004867 -0.038063 2.001024 -5.252024 32.048146 -0.283075 1.191886 11.056252 0.000002 0.000003 0.000012 0.000001 -0.000001 0.000002 0.045704 0.110147 -0.021608 -0.652940 -5.904417 -8.594348 -1.870583 -7.893229 -67.527621 -1.235793 -114.644807 -1.123643 36.390295 -15.260275 25.010508 0.024661 -0.015762 0.026817 -22.836797 -0.156649 2.960023 7.873102 13.737178 -4.164497 0.026479 -0.015288 0.015287 -0.000004 0.000009 -0.000008 0.019989 -0.011541 0.011541 -0.000000 -0.000003 0.000002 0.091093 -0.005180 0.022599 -4.641444 -0.648963 -11.932818 0.211540 1.544630 -15.644652 0.000002 0.000001 -0.000000 0.000004 0.000003 0.000001 0.095334 0.000000 0.000000 -0.704854 2.219876 -16.412562 -0.181156 -0.459228 -14.834341 -0.000001 -0.000001 -0.000001 0.000001 0.000000 0.000000 0.091045 -0.000430 -0.018651 0.991896 5.627217 -23.861508 -0.481088 -0.947393 -22.527115 0.000000 -0.000003 -0.000002 0.000001 -0.000002 -0.000001 0.080778 -0.004869 -0.038063 4.470288 8.689072 -24.332554 -0.700884 -3.328258 -19.747511 -0.000006 -0.000012 -0.000013 0.000007 0.000000 -0.000002 -0.082078 -0.067517 -0.015995 -25.290517 0.583807 -10.600098 39.116299 0.298051 1.540527 -15.457222 -8.132442 3.556526 -1.041223 -3.935043 2.375049 0.000000 -0.000000 -0.000000 0.082078 -0.067517 -0.015995 -23.302271 6.404691 5.163868 43.117840 -0.922632 -1.636643 -6.323379 4.457084 -3.352066 -13.181745 -2.839406 -2.913554 -0.000000 0.000000 0.000000 
-0.015111 0.984362 0.037366 1.843132 7.358903 4.278784 0.000000 0.101815 0.001315 2.676576 0.227075 -0.167114 5.350325 0.498147 0.228654 5.350327 0.498149 0.228653 -0.000000 0.167403 -0.020490 11.313941 -2.292823 -4.622194 0.000000 0.096178 0.016850 26.073206 3.451468 -6.248856 0.000000 0.220374 0.075011 -0.000005 0.000002 -0.000001 -0.045700 0.110149 -0.021608 -0.006915 5.928721 6.084125 -10.866579 -3.140224 56.346592 -2.009128 134.871825 1.424600 4.961054 2.184031 -12.495576 -0.024648 -0.015740 0.026819 -27.859097 -7.277314 4.968520 1.172829 -2.455817 -0.269832 -0.026463 -0.015278 0.015278 -0.000004 0.000006 -0.000006 -0.019946 -0.011516 0.011516 -0.000002 0.000003 -0.000004 -0.091083 -0.005179 0.022598 -6.176652 -4.385156 19.187101 0.256777 -1.460230 24.034630 -0.000002 0.000002 -0.000002 0.000002 0.000001 0.000002 -0.095325 0.000000 0.000000 -0.626544 -3.032459 23.394969 -0.202836 0.853964 16.634615 0.000001 0.000000 0.000002 -0.000001 -0.000001 0.000004 -0.091036 -0.000431 -0.018651 -1.065813 -5.009145 27.322539 0.983601 0.094903 14.419448 -0.000009 0.000007 0.000010 0.000003 0.000002 0.000000 -0.080767 -0.004867 -0.038063 1.894515 -5.013229 31.510521 -0.276602 1.162319 10.828063 0.000000 0.000001 0.000014 0.000004 0.000000 -0.000001 0.045704 0.110147 -0.021608 -0.569167 -5.497060 -7.953330 1.513212 -7.859748 -68.475795 -1.300872 -110.107123 -1.221966 42.951108 -14.840212 29.252686 0.024661 -0.015762 0.026817 -21.618329 -0.730490 3.412168 7.966500 13.685373 -4.441178 0.026479 -0.015287 0.015287 -0.000008 0.000013 -0.000012 0.019989 -0.011541 0.011541 -0.000004 0.000003 -0.000000 0.091093 -0.005180 0.022599 -4.381255 -1.022183 -11.200803 0.187330 1.527524 -15.304591 0.000003 0.000002 0.000000 0.000002 -0.000001 -0.000000 0.095334 0.000000 -0.000000 -0.720432 2.289897 -15.680981 -0.177795 -0.427911 -14.259044 0.000001 -0.000000 0.000000 -0.000002 -0.000000 -0.000000 0.091045 -0.000430 -0.018651 1.065908 5.831874 -23.337624 -0.487870 -0.952984 -22.551866 0.000001 0.000000 0.000002 0.000001 0.000001 0.000001 0.080778 -0.004869 -0.038063 4.414788 9.152871 -23.545699 -0.737731 -3.417692 -20.290250 -0.000011 -0.000013 -0.000014 -0.000004 -0.000001 -0.000000 -0.082078 -0.067517 -0.015995 -24.442305 0.538395 -10.752766 38.814930 0.232289 1.525635 -15.705938 -8.006099 3.739009 -1.039735 -3.839576 2.312219 -0.000000 -0.000000 -0.000000 0.082078 -0.067517 -0.015995 -22.720150 6.963861 5.286690 43.128864 -0.909462 -1.639380 -5.605642 4.178652 -3.502989 -14.174017 -2.819398 -2.772164 -0.000000 0.000000 0.000000 
-0.013263 0.985469 0.041537 1.452262 7.197214 4.347560 -0.000000 0.101815 0.001315 2.508438 0.275395 -0.077510 5.013035 0.589835 0.410514 5.013035 0.589833 0.410516 0.000000 0.167404 -0.020490 11.923266 0.560380 -5.231677 -0.000000 0.096178 0.016850 25.304037 5.814374 -5.303192 0.000000 0.220374 0.075011 0.000000 0.000000 -0.000001 -0.045700 0.110149 -0.021608 -0.111325 5.935481 6.496628 -4.289273 -5.881661 56.718738 -1.970374 133.802764 1.422812 8.431783 3.493065 -13.569218 -0.024648 -0.015740 0.026819 -27.684596 -6.409794 6.137597 1.230256 -2.746194 -0.395814 -0.026463 -0.015278 0.015278 -0.000003 0.000011 -0.000004 -0.019946 -0.011516 0.011516 0.000000 -0.000004 -0.000002 -0.091083 -0.005179 0.022598 -6.725920 -3.740776 19.367135 0.225309 -1.389905 22.439746 -0.000001 0.000004 -0.000001 -0.000001 -0.000002 -0.000000 -0.095325 0.000000 -0.000000 -1.057263 -2.598666 22.868508 -0.188039 0.804945 15.859418 0.000003 0.000003 0.000000 0.000001 0.000003 -0.000000 -0.091036 -0.000431 -0.018651 -1.180221 -4.692693 26.382728 0.879644 0.056255 14.283804 -0.000004 0.000005 0.000011 -0.000001 0.000001 0.000005 -0.080767 -0.004867 -0.038063 1.785694 -4.755459 30.937171 -0.269840 1.130669 10.584290 0.000001 0.000002 0.000014 0.000004 0.000000 0.000003 0.045704 0.110147 -0.021608 -0.502220 -5.159171 -7.420309 4.344351 -7.735488 -69.310396 -1.470215 -104.902956 -1.421091 48.902372 -13.511521 33.841586 0.024661 -0.015762 0.026817 -20.444383 -1.276015 3.857577 8.056099 13.635189 -4.706897 0.026479 -0.015288 0.015287 -0.000005 0.000013 -0.000009 0.019989 -0.011541 0.011541 0.000003 -0.000000 0.000002 0.091093 -0.005180 0.022599 -4.123445 -1.374830 -10.494383 0.164123 1.510850 -14.977848 -0.000001 -0.000003 -0.000001 -0.000001 -0.000001 -0.000000 0.095334 0.000000 -0.000000 -0.736598 2.356621 -14.977906 -0.174878 -0.397817 -13.706277 -0.000000 -0.000002 -0.000001 0.000000 -0.000003 -0.000001 0.091045 -0.000430 -0.018651 1.133877 6.029509 -22.834019 -0.494385 -0.958382 -22.575676 0.000000 -0.000000 0.000000 -0.000000 0.000001 -0.000000 0.080778 -0.004869 -0.038063 4.351144 9.595971 -22.785760 -0.773903 -3.503272 -20.811825 -0.000011 -0.000012 -0.000012 0.000001 -0.000002 -0.000003 -0.082078 -0.067517 -0.015995 -23.587637 0.449537 -10.884362 38.491647 0.145679 1.508262 -15.973340 -7.844074 3.923312 -1.020406 -3.715995 2.235813 -0.000000 0.000000 -0.000000 0.082078 -0.067517 -0.015995 -22.129461 7.438669 5.413812 43.138478 -0.894020 -1.641850 -4.907870 3.902455 -3.659775 -15.233543 -2.827372 -2.605642 0.000000 -0.000000 0.000000 
